<svg xmlns="http://www.w3.org/2000/svg" viewBox="0 0 150 137.66">
	<g id="Laag_2" data-name="Laag 2">
		<g id="Layer_1" data-name="Layer 1">
			<path class="cls-1" d="M1,86.12l4.61-4.61a5.5,5.5,0,0,1,5.79-1.28L29.1,86.71,107.18,8.63a22,22,0,0,1,15.21-6.45l8-.13,6-1.64a10.92,10.92,0,0,1,10.3,2.34,10.58,10.58,0,0,1,.3,15.24L107.27,57.62l-2.65,62.16a11,11,0,0,1-3.22,7.32l-9.59,9.59a3.31,3.31,0,0,1-5.52-1.44L73.88,91l-.43.43A84,84,0,0,1,27.11,115a3.3,3.3,0,0,1-2.84-.94L13,102.82,1,90.8A3.31,3.31,0,0,1,1,86.12Z"/>
			<path class="cls-1" d="M12.74,61.7a3.31,3.31,0,0,1-1.44-5.52l9.59-9.59a11,11,0,0,1,7.32-3.22l41.86-1.79L41.8,69.85Z"/>
		</g>
	</g>
</svg>