<svg xmlns="http://www.w3.org/2000/svg" viewBox="0 0 150.16 105.85">
	<g id="Laag_2" data-name="Laag 2">
		<g id="Layer_1" data-name="Layer 1">
			<path class="cls-1" d="M145.75,33.19H131a4.4,4.4,0,0,0-4.41,4.41v4l-6.47-31.47A12.71,12.71,0,0,0,107.7,0H42.46A12.72,12.72,0,0,0,30,10.15L23.55,41.62v-4a4.41,4.41,0,0,0-4.42-4.41H4.42A4.41,4.41,0,0,0,0,37.6v9.27a4.42,4.42,0,0,0,4.42,4.42H17.59l-4.33,4.28a5,5,0,0,0-1.49,3.56V84.48a6.35,6.35,0,0,0,6.35,6.35h1.45v8.66a6.35,6.35,0,0,0,6.35,6.36h8.26a6.36,6.36,0,0,0,6.35-6.36V90.83H53.39l3.44,3a5,5,0,0,0,3.3,1.25H89.61a5,5,0,0,0,3.3-1.25l3.44-3h13.28v8.66a6.36,6.36,0,0,0,6.36,6.36h8.25a6.36,6.36,0,0,0,6.36-6.36V90.83H132a6.35,6.35,0,0,0,6.35-6.35V59.13a5,5,0,0,0-1.49-3.56l-4.33-4.28h13.18a4.41,4.41,0,0,0,4.41-4.42V37.6A4.4,4.4,0,0,0,145.75,33.19Zm-106,35.39a3,3,0,0,1-3,3H22.25a3,3,0,0,1-3-3v-4.5a3,3,0,0,1,3-3h10.5a7,7,0,0,1,7,7ZM100.13,83H50a1.79,1.79,0,0,1,0-3.57h50.1a1.79,1.79,0,0,1,0,3.57Zm0-6.55H50a1.79,1.79,0,0,1,0-3.57h50.1a1.79,1.79,0,0,1,0,3.57Zm0-6.54H50a1.79,1.79,0,0,1,0-3.57h50.1a1.79,1.79,0,0,1,0,3.57ZM34.58,42.63a5,5,0,0,1-4.9-6l5.23-25.47A7.74,7.74,0,0,1,42.46,5h65.25a7.71,7.71,0,0,1,7.54,6.15l5.23,25.47a5,5,0,0,1-4.89,6Zm96,25.95a3,3,0,0,1-3,3H113.1a3,3,0,0,1-3-3v-.5a7,7,0,0,1,7-7h10.5a3,3,0,0,1,3,3Z"/>
		</g>
	</g>
</svg>