<svg xmlns="http://www.w3.org/2000/svg" viewBox="0 0 104.24 150">
	<g id="Laag_2" data-name="Laag 2">
		<g id="Layer_1" data-name="Layer 1">
			<path class="cls-1" d="M19.69,135.17,15,145.9a2.92,2.92,0,0,0,2.67,4.1h8.18a2.94,2.94,0,0,0,2.68-1.75l4.71-10.72a2.92,2.92,0,0,0-2.68-4.1H22.37A2.93,2.93,0,0,0,19.69,135.17Z"/>
			<path class="cls-1" d="M84.55,135.17l4.71,10.73a2.92,2.92,0,0,1-2.68,4.1H78.41a2.94,2.94,0,0,1-2.68-1.75L71,137.53a2.92,2.92,0,0,1,2.68-4.1h8.17A2.93,2.93,0,0,1,84.55,135.17Z"/>
			<path class="cls-1" d="M104,94.83l-8.15-57a44.13,44.13,0,0,0-87.36,0l-8.15,57a28.65,28.65,0,0,0,28.36,32.7H75.59A28.65,28.65,0,0,0,104,94.83ZM23.38,106a7,7,0,1,1,7-7A7,7,0,0,1,23.38,106Zm.71-54.29a4.5,4.5,0,0,1-3.81-5.18l1.26-7.94a4.49,4.49,0,0,1,5-3.77,191.05,191.05,0,0,0,51.12,0,4.49,4.49,0,0,1,5,3.77L84,46.5a4.5,4.5,0,0,1-3.81,5.18A208,208,0,0,1,24.09,51.68ZM80.86,106a7,7,0,1,1,7-7A7,7,0,0,1,80.86,106Z"/>
		</g>
	</g>
</svg>